<svg width="340" height="294" viewBox="0 0 340 294" fill="none" xmlns="http://www.w3.org/2000/svg">
<path d="M91.7188 293.141L118.45 287.347L149.423 280.627C149.423 280.627 151.1 285.758 153.452 293.141H91.7188Z" fill="#2F2E41"/>
<path d="M159.383 289.812C159.383 289.812 159.133 291.151 158.62 293.141H33.8265C32.4499 288.949 31.8367 284.631 33.4761 281.065C33.7518 280.442 34.1005 279.854 34.5148 279.313C34.8218 278.888 35.1651 278.49 35.5409 278.124C37.9938 275.696 39.4955 270.465 40.3965 264.508C41.4783 256.363 41.926 248.145 41.7356 239.93C41.7481 239.918 41.7481 239.918 41.7356 239.918C41.7105 237.978 41.6605 236.814 41.6605 236.814C41.6605 236.814 41.1849 229.643 40.6468 218.806C40.6594 218.806 40.6468 218.793 40.6468 218.793C39.1701 189.547 37.1678 133.558 42.3613 118.716C42.6926 117.465 43.364 116.33 44.301 115.437C51.2926 110.391 58.7323 105.996 66.5266 102.309C66.9771 102.109 67.2148 101.996 67.2148 101.996L84.347 101.671L105.621 97.9168L120.401 95.2136C120.401 95.2136 121.49 95.2887 123.192 95.5265C128.848 96.3024 141.287 98.8429 143.04 106.201C143.04 106.214 143.052 106.226 143.052 106.239C143.273 107.203 143.312 108.201 143.165 109.18C141.488 121.444 153.326 196.768 156.931 200.535C160.535 204.302 159.584 218.067 150.673 226.815C149.103 228.433 147.96 230.415 147.345 232.584C143.978 243.409 149.259 261.092 154.428 269.364C158.183 275.492 159.916 282.645 159.383 289.812Z" fill="#3F3D56"/>
<path d="M59.082 293.141H42.9132L42.3622 292.228L34.516 279.313L30.1855 272.179L40.3974 264.509L45.2034 260.905L55.8025 285.52L59.082 293.141Z" fill="#A0616A"/>
<path d="M119.614 293.141H87.8398L108.126 235.575L118.45 287.347L119.614 293.141Z" fill="#FF4D67"/>
<path opacity="0.5" d="M142.554 199.838H51.22C36.7391 199.838 25 211.577 25 226.058V259.078C25 273.559 36.7391 285.298 51.22 285.298H142.554C157.035 285.298 168.774 273.559 168.774 259.078V226.058C168.774 211.577 157.035 199.838 142.554 199.838Z" fill="#1F222A"/>
<path d="M142.554 286.278H51.22C44.0085 286.27 37.0947 283.402 31.9954 278.303C26.8961 273.203 24.0277 266.289 24.0195 259.078V226.058C24.0277 218.847 26.8961 211.933 31.9954 206.834C37.0947 201.734 44.0085 198.866 51.22 198.858H142.554C149.765 198.866 156.679 201.734 161.778 206.834C166.878 211.933 169.746 218.847 169.754 226.058V259.078C169.746 266.289 166.878 273.203 161.778 278.303C156.679 283.402 149.765 286.27 142.554 286.278ZM51.22 200.818C44.5284 200.826 38.113 203.488 33.3813 208.219C28.6495 212.951 25.9879 219.367 25.9803 226.058V259.078C25.9879 265.77 28.6495 272.185 33.3813 276.917C38.113 281.648 44.5284 284.31 51.22 284.318H142.554C149.245 284.31 155.661 281.648 160.393 276.917C165.124 272.185 167.786 265.77 167.793 259.078V226.058C167.786 219.367 165.124 212.951 160.393 208.219C155.661 203.488 149.245 200.826 142.554 200.818H51.22Z" fill="#1F222A"/>
<path d="M98.2909 269.823C110.042 269.823 119.568 260.297 119.568 248.546C119.568 236.794 110.042 227.268 98.2909 227.268C86.5398 227.268 77.0137 236.794 77.0137 248.546C77.0137 260.297 86.5398 269.823 98.2909 269.823Z" fill="#FFB6B6"/>
<path d="M84.4297 254.012C84.165 253.923 83.8843 253.892 83.6066 253.921C83.3289 253.95 83.0606 254.038 82.8198 254.179C82.579 254.321 82.3714 254.512 82.211 254.741C82.0505 254.969 81.9409 255.229 81.8896 255.504C81.8194 256.067 81.865 256.639 82.0237 257.184C82.1823 257.73 82.4506 258.237 82.8122 258.675C83.5387 259.545 84.1898 260.475 84.7584 261.455C85.0359 261.951 85.1659 262.516 85.1331 263.084C85.1004 263.651 84.9063 264.197 84.5736 264.658C84.2111 265.011 83.7558 265.254 83.2608 265.358C82.7658 265.463 82.2513 265.424 81.7771 265.248C80.8331 264.879 79.9986 264.276 79.352 263.496C75.2842 259.082 71.0408 251.756 73.1203 246.126C73.2929 245.524 73.3615 244.897 73.3231 244.272C73.3629 243.556 73.4957 242.477 72.8209 242.233C70.9378 241.553 76.2214 230.546 84.3762 228.152C83.9791 224.394 103.598 218.988 102.527 223.706C102.334 224.553 104.229 224.093 105.097 224.14C111.753 224.5 119.27 226.173 118.664 233.888C118.429 236.875 119.665 236.186 120.657 239.014C119.112 239.935 118.605 241.956 117.413 240.608C116.221 239.259 115.204 237.57 113.495 237.004C111.677 236.401 109.703 237.303 108.152 238.428C106.601 239.552 105.178 240.95 103.355 241.539C101.31 242.2 99.0799 241.74 96.9475 242.008C93.9053 242.53 91.1582 244.144 89.2211 246.547C87.3117 248.936 85.7001 251.548 84.422 254.327" fill="#2F2E41"/>
<path d="M227.535 49.0067L227.176 35.9115L226.697 18.3504L212.696 17.7034L210.737 35.1516L208.91 51.3656L227.535 49.0067Z" fill="#A0616A"/>
<path d="M84.1367 104.455L103.777 125.533C103.777 125.533 186.995 138.973 187.552 131.916C188.109 124.859 182.627 122.815 191.613 123.442C200.598 124.069 202.758 130.453 204.127 124.347C205.497 118.242 197.962 118.092 206.686 117.227C215.409 116.361 234.463 40.1965 234.463 40.1965L204.07 45.0986C204.07 45.0986 198.163 81.9244 194.458 86.6306C190.754 91.3367 187.037 94.7138 184.752 94.9174C182.467 95.1211 84.1367 104.455 84.1367 104.455Z" fill="#3F3D56"/>
<path opacity="0.5" d="M312.8 116.487H221.466C206.985 116.487 195.246 128.226 195.246 142.707V175.727C195.246 190.208 206.985 201.947 221.466 201.947H312.8C327.281 201.947 339.02 190.208 339.02 175.727V142.707C339.02 128.226 327.281 116.487 312.8 116.487Z" fill="#1F222A"/>
<path d="M312.8 202.928H221.466C214.255 202.919 207.341 200.051 202.242 194.952C197.142 189.852 194.274 182.939 194.266 175.727V142.707C194.274 135.496 197.142 128.582 202.242 123.483C207.341 118.384 214.255 115.515 221.466 115.507H312.8C320.011 115.515 326.925 118.384 332.024 123.483C337.124 128.582 339.992 135.496 340 142.707V175.727C339.992 182.939 337.124 189.852 332.024 194.952C326.925 200.051 320.011 202.919 312.8 202.928V202.928ZM221.466 117.468C214.774 117.475 208.359 120.137 203.627 124.869C198.896 129.6 196.234 136.016 196.226 142.707V175.727C196.234 182.419 198.896 188.834 203.627 193.566C208.359 198.298 214.774 200.959 221.466 200.967H312.8C319.492 200.959 325.907 198.298 330.639 193.566C335.37 188.834 338.032 182.419 338.04 175.727V142.707C338.032 136.016 335.37 129.6 330.639 124.869C325.907 120.137 319.492 117.475 312.8 117.468L221.466 117.468Z" fill="#1F222A"/>
<path d="M267.015 183.429C278.581 183.429 287.956 174.053 287.956 162.488C287.956 150.923 278.581 141.547 267.015 141.547C255.45 141.547 246.074 150.923 246.074 162.488C246.074 174.053 255.45 183.429 267.015 183.429Z" fill="#A0616A"/>
<path d="M271.607 183.31C269.036 177.578 282.966 165.684 274.041 165.081C274.041 165.081 268.173 154.794 264.448 157.552C260.134 160.745 253.848 154.945 250.155 151.065C250.941 150.431 251.646 149.703 252.255 148.897C251.081 149.112 249.892 149.237 248.7 149.269C248.257 148.614 247.947 147.879 247.788 147.104C247.615 146.371 247.67 145.603 247.947 144.902C248.223 144.202 248.707 143.602 249.333 143.185C250.687 142.431 252.416 142.891 253.862 142.35C254.042 142.262 254.199 142.132 254.318 141.97C254.437 141.808 254.515 141.619 254.545 141.421C254.654 140.953 254.864 140.515 255.161 140.138C255.458 139.761 255.834 139.455 256.264 139.24C256.693 139.025 257.164 138.907 257.644 138.896C258.124 138.884 258.6 138.978 259.04 139.171C259.207 139.266 259.396 139.319 259.588 139.324C260.596 139.26 261.593 139.076 262.558 138.776C261.476 138.269 260.433 137.681 259.44 137.017C259.236 136.878 259.032 136.74 258.832 136.593C259.731 135.862 260.777 135.335 261.899 135.046C263.021 134.757 264.193 134.714 265.333 134.92C267.724 135.385 270.028 136.217 272.165 137.387C273.431 138.004 274.695 138.619 275.956 139.234C278.678 140.432 281.265 141.915 283.675 143.658C286.189 145.634 288.236 148.141 289.669 150.999C291.102 153.858 291.886 156.997 291.965 160.194C292.08 166.571 286.624 184.048 271.607 183.31Z" fill="#2F2E41"/>
<path d="M219.871 138.018C223.598 138.018 226.619 134.997 226.619 131.27C226.619 127.543 223.598 124.521 219.871 124.521C216.144 124.521 213.123 127.543 213.123 131.27C213.123 134.997 216.144 138.018 219.871 138.018Z" fill="#FF4D67"/>
<path d="M218.95 134.781C218.834 134.781 218.719 134.754 218.614 134.702C218.51 134.65 218.42 134.574 218.35 134.481L216.509 132.026C216.449 131.948 216.405 131.858 216.38 131.762C216.355 131.666 216.349 131.566 216.363 131.468C216.376 131.37 216.409 131.276 216.46 131.191C216.51 131.105 216.577 131.031 216.656 130.972C216.735 130.912 216.825 130.869 216.921 130.845C217.017 130.82 217.117 130.815 217.215 130.829C217.313 130.844 217.407 130.877 217.492 130.928C217.577 130.979 217.651 131.046 217.71 131.126L218.914 132.731L222.008 128.091C222.118 127.926 222.29 127.811 222.485 127.772C222.68 127.733 222.883 127.773 223.048 127.883C223.214 127.994 223.329 128.165 223.368 128.361C223.407 128.556 223.367 128.758 223.257 128.924L219.575 134.447C219.508 134.547 219.419 134.629 219.313 134.688C219.208 134.746 219.091 134.778 218.971 134.781L218.95 134.781Z" fill="#1F222A"/>
<path d="M66.5332 102.309L106.88 195.529L123.198 95.5265C121.496 95.2887 120.408 95.2136 120.408 95.2136L113.462 81.7231L73.6788 83.788L67.2215 101.997C67.2215 101.997 66.9837 102.109 66.5332 102.309Z" fill="#FF4D67"/>
<path d="M72.4649 115.205L43.6818 116.457C43.6818 116.457 1.13293 189.04 6.13868 194.046C11.1444 199.052 16.2582 196.21 9.94703 202.637C3.63581 209.063 -2.62139 206.56 1.13292 211.566C4.88724 216.572 9.89299 210.939 4.88723 218.135C-0.118519 225.332 40.5532 293.141 40.5532 293.141L58.0734 284.381C58.0734 284.381 41.0242 239.581 39.8501 233.708C38.6761 227.835 38.5213 222.815 39.8501 220.945C41.179 219.075 72.4649 115.205 72.4649 115.205Z" fill="#3F3D56"/>
<path d="M55.1622 222.333C58.8891 222.333 61.9104 219.312 61.9104 215.585C61.9104 211.858 58.8891 208.836 55.1622 208.836C51.4353 208.836 48.4141 211.858 48.4141 215.585C48.4141 219.312 51.4353 222.333 55.1622 222.333Z" fill="#FF4D67"/>
<path d="M54.2411 219.096C54.1245 219.096 54.0096 219.069 53.9054 219.017C53.8012 218.965 53.7105 218.889 53.6406 218.796L51.7996 216.341C51.7397 216.263 51.6959 216.173 51.6709 216.077C51.6458 215.981 51.64 215.881 51.6537 215.783C51.6674 215.685 51.7003 215.591 51.7506 215.506C51.8009 215.42 51.8676 215.346 51.9467 215.286C52.0259 215.227 52.1161 215.184 52.212 215.16C52.308 215.135 52.4078 215.13 52.5058 215.144C52.6037 215.159 52.6979 215.192 52.7828 215.243C52.8677 215.294 52.9417 215.361 53.0006 215.441L54.2051 217.046L57.2985 212.406C57.3532 212.324 57.4235 212.254 57.5054 212.199C57.5873 212.144 57.6792 212.106 57.7759 212.087C57.8726 212.067 57.9721 212.067 58.0688 212.086C58.1655 212.105 58.2575 212.143 58.3395 212.198C58.4215 212.253 58.4919 212.323 58.5468 212.405C58.6017 212.487 58.6398 212.579 58.6592 212.675C58.6785 212.772 58.6786 212.872 58.6595 212.968C58.6403 213.065 58.6024 213.157 58.5477 213.239L54.8657 218.762C54.7991 218.862 54.7095 218.944 54.6044 219.003C54.4994 219.061 54.3819 219.093 54.2619 219.096L54.2411 219.096Z" fill="#1F222A"/>
<path d="M144.379 222.013C143.062 222.013 141.773 221.623 140.678 220.891C139.582 220.158 138.728 219.118 138.224 217.901C137.72 216.683 137.588 215.343 137.845 214.051C138.102 212.759 138.736 211.572 139.668 210.64C140.6 209.708 141.787 209.074 143.079 208.816C144.372 208.559 145.711 208.691 146.929 209.196C148.146 209.7 149.187 210.554 149.919 211.649C150.651 212.745 151.042 214.033 151.042 215.351C151.042 217.118 150.34 218.813 149.09 220.062C147.841 221.311 146.146 222.013 144.379 222.013V222.013Z" fill="#35383F"/>
<path d="M146.702 216.745L145.308 215.351L146.702 213.956C146.824 213.833 146.892 213.666 146.891 213.493C146.891 213.319 146.822 213.153 146.699 213.03C146.576 212.907 146.41 212.838 146.236 212.837C146.063 212.837 145.896 212.905 145.772 213.027L144.378 214.421L142.984 213.027C142.861 212.904 142.694 212.836 142.52 212.836C142.346 212.836 142.179 212.905 142.056 213.028C141.933 213.151 141.864 213.318 141.864 213.492C141.863 213.666 141.932 213.833 142.055 213.956L143.449 215.351L142.055 216.745C141.993 216.806 141.944 216.878 141.911 216.958C141.877 217.038 141.86 217.124 141.859 217.21C141.859 217.297 141.876 217.383 141.909 217.463C141.942 217.543 141.991 217.616 142.052 217.677C142.113 217.738 142.186 217.787 142.266 217.82C142.346 217.853 142.432 217.87 142.519 217.87C142.605 217.869 142.691 217.852 142.771 217.818C142.851 217.785 142.923 217.736 142.984 217.674L144.378 216.28L145.772 217.674C145.896 217.797 146.063 217.866 146.237 217.865C146.411 217.865 146.578 217.796 146.701 217.673C146.824 217.55 146.893 217.383 146.893 217.209C146.893 217.035 146.825 216.868 146.702 216.745Z" fill="#1F222A"/>
<path d="M316.93 141.62C315.612 141.62 314.324 141.229 313.229 140.497C312.133 139.765 311.279 138.725 310.775 137.507C310.27 136.29 310.139 134.95 310.396 133.658C310.653 132.365 311.287 131.178 312.219 130.247C313.151 129.315 314.338 128.68 315.63 128.423C316.923 128.166 318.262 128.298 319.48 128.802C320.697 129.307 321.738 130.161 322.47 131.256C323.202 132.352 323.592 133.64 323.592 134.958C323.592 136.725 322.891 138.419 321.641 139.669C320.392 140.918 318.697 141.62 316.93 141.62V141.62Z" fill="#35383F"/>
<path d="M319.255 136.352L317.86 134.957L319.255 133.563C319.316 133.502 319.365 133.43 319.399 133.35C319.432 133.27 319.45 133.184 319.45 133.098C319.45 133.011 319.433 132.925 319.4 132.845C319.367 132.765 319.319 132.692 319.257 132.631C319.196 132.57 319.123 132.521 319.043 132.488C318.963 132.455 318.877 132.438 318.791 132.438C318.704 132.439 318.618 132.456 318.538 132.49C318.459 132.523 318.386 132.572 318.325 132.634L316.931 134.028L315.537 132.634C315.414 132.511 315.247 132.442 315.073 132.443C314.899 132.443 314.732 132.512 314.609 132.635C314.486 132.758 314.417 132.925 314.416 133.099C314.416 133.273 314.485 133.44 314.607 133.563L316.002 134.957L314.607 136.352C314.546 136.412 314.497 136.485 314.463 136.565C314.43 136.645 314.412 136.73 314.412 136.817C314.412 136.904 314.429 136.99 314.462 137.07C314.495 137.15 314.543 137.223 314.605 137.284C314.666 137.345 314.739 137.394 314.819 137.427C314.899 137.46 314.985 137.477 315.071 137.476C315.158 137.476 315.244 137.459 315.324 137.425C315.404 137.392 315.476 137.343 315.537 137.281L316.931 135.887L318.325 137.281C318.386 137.342 318.459 137.391 318.538 137.424C318.618 137.458 318.704 137.475 318.79 137.475C318.877 137.475 318.962 137.458 319.042 137.425C319.122 137.392 319.195 137.343 319.256 137.282C319.317 137.221 319.366 137.149 319.399 137.069C319.432 136.989 319.449 136.903 319.448 136.817C319.448 136.73 319.431 136.645 319.398 136.565C319.365 136.485 319.316 136.413 319.255 136.352V136.352Z" fill="#1F222A"/>
<path d="M95.3997 77.2046C111.335 77.2046 124.252 64.2868 124.252 48.3518C124.252 32.4169 111.335 19.499 95.3997 19.499C79.4647 19.499 66.5469 32.4169 66.5469 48.3518C66.5469 64.2868 79.4647 77.2046 95.3997 77.2046Z" fill="#A0616A"/>
<path d="M72.9149 73.201L84.3531 75.391C84.3531 75.391 73.7158 58.2212 74.3415 50.3623C74.9673 42.5032 83.5272 39.6874 83.5272 39.6874C83.5272 39.6874 88.2701 40.7136 93.2633 41.2893C93.8613 39.6055 94.6374 37.9903 95.5784 36.4712C95.7636 38.4323 96.6318 40.266 98.0313 41.6522C99.8612 41.8094 101.704 41.5966 103.45 41.0265C105.427 40.1255 105.39 38.5612 104.739 37.097C114.262 37.56 123.285 42.1903 123.285 42.1903C123.573 38.3483 123.426 34.4861 122.847 30.6771C122.572 30.602 122.297 30.5144 122.021 30.4268C120.316 29.8872 118.671 29.17 117.116 28.2869C118.847 28.0571 120.465 27.2963 121.746 26.1094C120.695 23.0308 119.018 20.3652 116.377 19.0638C113.83 17.8178 111.044 17.1339 108.209 17.0584C105.374 16.9828 102.556 17.5173 99.9459 18.6258C99.9459 18.6258 106.065 14.1581 103.813 12.331C103.663 12.4812 103.513 12.6188 103.35 12.7565C103.137 12.9317 102.899 13.1194 102.674 13.2946C101.285 14.4209 99.2075 12.8316 98.9323 11.1296C98.9026 10.9147 98.8608 10.7016 98.8071 10.4914C98.7696 10.3162 98.7195 10.141 98.6695 9.97829C98.627 9.83389 98.5768 9.69187 98.5193 9.5528C94.352 8.55159 81.75 12.6188 76.9069 21.5791C76.907 21.5791 43.0556 37.8479 72.9149 73.201Z" fill="#3F3D56"/>
<path d="M219.757 23.5297C226.255 23.5297 231.522 18.2624 231.522 11.7649C231.522 5.26731 226.255 0 219.757 0C213.259 0 207.992 5.26731 207.992 11.7649C207.992 18.2624 213.259 23.5297 219.757 23.5297Z" fill="#A0616A"/>
<path opacity="0.5" d="M312.482 8.62695H221.148C206.667 8.62695 194.928 20.3661 194.928 34.847V67.867C194.928 82.3479 206.667 94.0871 221.148 94.0871H312.482C326.963 94.0871 338.702 82.3479 338.702 67.867V34.847C338.702 20.3661 326.963 8.62695 312.482 8.62695Z" fill="#1F222A"/>
<path d="M312.482 95.0677H221.148C213.936 95.0595 207.022 92.1911 201.923 87.0918C196.824 81.9925 193.955 75.0787 193.947 67.8672V34.847C193.955 27.6355 196.824 20.7217 201.923 15.6224C207.022 10.523 213.936 7.65466 221.148 7.64648H312.482C319.694 7.65466 326.608 10.523 331.707 15.6224C336.806 20.7217 339.675 27.6355 339.683 34.847V67.8672C339.675 75.0787 336.806 81.9925 331.707 87.0918C326.608 92.1911 319.694 95.0595 312.482 95.0677V95.0677ZM221.148 9.60729C214.456 9.61488 208.041 12.2765 203.309 17.0082C198.577 21.7399 195.916 28.1553 195.908 34.847V67.8672C195.916 74.5589 198.577 80.9743 203.309 85.706C208.041 90.4377 214.456 93.0993 221.148 93.1069H312.482C319.174 93.0993 325.59 90.4377 330.321 85.706C335.053 80.9743 337.715 74.5589 337.722 67.8672V34.847C337.715 28.1553 335.053 21.7399 330.321 17.0082C325.59 12.2765 319.174 9.61488 312.482 9.60729H221.148Z" fill="#1F222A"/>
<path d="M294.104 53.8102C294.164 59.2977 295.911 70.7223 294.659 76.0973L294.456 75.6475C293.416 76.4725 292.31 77.212 291.15 77.859C290.314 75.8243 289.063 73.9861 287.477 72.4615C287.686 74.9839 287.388 77.5227 286.6 79.928C281.915 81.6148 273.691 76.2997 268.593 76.1873C260.392 75.9999 252.401 73.9608 244.567 71.8018C241.786 71.0371 238.727 70.0401 237.468 67.7312C236.209 65.4223 238.463 62.9301 238.315 60.3247C237.265 41.7666 246.104 38.6559 254.515 33.6971C256.366 32.6058 257.274 30.2562 259.365 29.3416C262.266 28.0747 265.722 28.6819 268.878 29.3191C268.094 29.0609 267.39 28.6053 266.834 27.9961C266.277 27.3869 265.886 26.6446 265.7 25.8408C265.568 25.0529 265.657 24.2439 265.956 23.5032C266.255 22.7624 266.752 22.1186 267.394 21.6427C268.351 21.0165 269.434 20.608 270.566 20.4461C271.698 20.2842 272.852 20.3728 273.946 20.7057C276.09 21.3761 278.117 22.3723 279.958 23.6593C281.208 24.3449 282.325 25.2487 283.257 26.3281C283.695 26.8388 283.968 27.4714 284.038 28.1412C284.107 28.811 283.971 29.4862 283.646 30.0763C283.246 30.5822 282.737 30.9912 282.157 31.2729C281.577 31.5546 280.94 31.7016 280.295 31.703C279.302 31.732 278.308 31.6286 277.342 31.3957C281.772 32.4886 285.765 34.9047 288.789 38.3225C292.545 42.6929 294.036 48.3228 294.104 53.8102Z" fill="#2F2E41"/>
<path d="M264.684 71.6773C274.722 71.6773 282.859 63.5402 282.859 53.5027C282.859 43.4652 274.722 35.3281 264.684 35.3281C254.647 35.3281 246.51 43.4652 246.51 53.5027C246.51 63.5402 254.647 71.6773 264.684 71.6773Z" fill="#FFB6B6"/>
<path d="M284.516 50.7593C282.379 53.3456 279.201 53.2106 276.374 52.7983C275.482 52.6709 274.59 52.5284 273.698 52.3635C273.541 51.8613 273.361 51.359 273.158 50.8717C272.322 48.837 271.071 46.9988 269.485 45.4742C269.652 47.4675 269.498 49.4747 269.028 51.419C267.371 51.0366 265.722 50.6093 264.08 50.1371C262.628 49.9009 261.321 49.1157 260.431 47.9438C259.541 46.7718 259.135 45.3027 259.297 43.84C256.936 45.6392 254.365 47.1984 251.666 47.2284C250.145 47.1889 248.676 46.6632 247.475 45.7283C246.275 44.7934 245.405 43.4985 244.994 42.0333C244.367 39.6605 244.258 37.1808 244.672 34.7618C245.031 31.8756 245.841 28.7046 247.79 27.5426C249.357 26.598 251.164 27.2727 252.775 28.0374C256.326 29.7415 259.692 31.8064 262.821 34.1995L262.858 34.9866C263.668 31.111 266.344 28.1198 269.26 27.82C271.224 27.6251 273.143 28.5321 274.995 29.4467C277.415 30.5144 279.666 31.9313 281.674 33.6522C283.944 35.7165 285.52 38.4317 286.187 41.4261C286.885 44.6721 286.36 48.5253 284.516 50.7593Z" fill="#2F2E41"/>
<path d="M266.526 25.5363C266.713 25.552 266.255 25.447 266.404 25.5094C266.331 25.4761 266.261 25.4368 266.194 25.3922C266.183 25.3849 266.035 25.2655 266.132 25.3486C265.909 25.1755 265.742 24.9418 265.649 24.6756C265.443 24.0288 265.347 23.3519 265.365 22.6732C265.402 21.7812 265.25 20.8914 264.919 20.0624C264.821 19.8379 264.671 19.6397 264.482 19.4839C264.292 19.3281 264.069 19.2191 263.83 19.1658C263.591 19.1124 263.343 19.1163 263.105 19.1769C262.868 19.2376 262.648 19.3534 262.464 19.5149C261.946 20.2129 261.695 21.0738 261.758 21.9409C261.711 22.78 261.8 23.6212 262.022 24.432C262.402 25.7651 263.162 26.9589 264.209 27.8677C265.418 28.9266 266.936 29.5676 268.538 29.6955C268.759 29.6906 268.973 29.6217 269.154 29.4973C269.336 29.3729 269.478 29.1983 269.562 28.9949C269.646 28.7914 269.669 28.5679 269.629 28.3514C269.588 28.135 269.486 27.935 269.334 27.7759L267.321 25.8656C267.11 25.6569 266.825 25.5403 266.528 25.5413C266.231 25.5422 265.946 25.6606 265.736 25.8706C265.526 26.0806 265.408 26.3652 265.407 26.6622C265.406 26.9592 265.522 27.2445 265.731 27.4558L267.743 29.366L268.538 27.4464C268.206 27.4165 267.879 27.3496 267.561 27.2468C267.218 27.1512 266.889 27.0072 266.586 26.8191C266.288 26.6562 266.01 26.4614 265.755 26.2382C265.591 26.0947 265.435 25.9431 265.288 25.7838C265.234 25.726 265.181 25.6671 265.13 25.6072C265.134 25.6116 264.918 25.3411 265.011 25.4648C264.778 25.1466 264.576 24.8075 264.406 24.4518C264.346 24.3258 264.297 24.1951 264.258 24.061C264.187 23.8405 264.129 23.6161 264.084 23.3888C263.998 22.9112 263.973 22.4248 264.007 21.9408C264.017 21.7355 264.037 21.5309 264.068 21.3278C264.097 21.2207 264.118 21.1118 264.131 21.0018C264.135 20.7288 264.094 21.1476 263.952 21.2112L263.384 21.3647C263.292 21.3572 263.202 21.329 263.122 21.2821C263.042 21.2352 262.974 21.171 262.922 21.094C262.898 21.0002 262.905 21.0168 262.942 21.144C262.984 21.2932 263.017 21.445 263.041 21.5985C263.084 21.9552 263.109 22.3138 263.116 22.673C263.123 23.4341 263.212 24.1922 263.38 24.9345C263.537 25.6805 263.926 26.3576 264.491 26.8695C265.056 27.3814 265.769 27.7018 266.526 27.7852C266.824 27.7828 267.109 27.6636 267.319 27.4532C267.529 27.2428 267.649 26.9581 267.651 26.6606C267.645 26.3643 267.525 26.0817 267.315 25.8721C267.105 25.6625 266.823 25.5422 266.526 25.5363V25.5363Z" fill="#2F2E41"/>
<path d="M221.832 30.1733C225.559 30.1733 228.58 27.1521 228.58 23.4252C228.58 19.6983 225.559 16.677 221.832 16.677C218.105 16.677 215.084 19.6983 215.084 23.4252C215.084 27.1521 218.105 30.1733 221.832 30.1733Z" fill="#FF4D67"/>
<path d="M220.911 26.937C220.794 26.937 220.68 26.9098 220.575 26.8577C220.471 26.8055 220.38 26.7299 220.311 26.6366L218.47 24.1819C218.41 24.1031 218.366 24.0132 218.341 23.9175C218.316 23.8217 218.31 23.7219 218.324 23.6239C218.337 23.5258 218.37 23.4314 218.421 23.3462C218.471 23.2609 218.537 23.1864 218.617 23.1271C218.696 23.0677 218.786 23.0245 218.882 23.0001C218.978 22.9757 219.078 22.9705 219.176 22.9848C219.274 22.9992 219.368 23.0327 219.453 23.0836C219.538 23.1344 219.612 23.2016 219.671 23.2812L220.875 24.887L223.968 20.2469C224.079 20.0812 224.251 19.9662 224.446 19.9272C224.641 19.8881 224.844 19.9282 225.009 20.0387C225.175 20.1491 225.29 20.3208 225.329 20.516C225.368 20.7112 225.328 20.914 225.218 21.0797L221.536 26.6027C221.469 26.7025 221.379 26.785 221.274 26.8431C221.169 26.9012 221.052 26.9333 220.932 26.9367L220.911 26.937Z" fill="#1F222A"/>
<path d="M313.989 30.8344C312.671 30.8344 311.383 30.4437 310.287 29.7116C309.192 28.9795 308.338 27.939 307.833 26.7216C307.329 25.5042 307.197 24.1646 307.454 22.8722C307.711 21.5798 308.346 20.3927 309.278 19.4609C310.209 18.5291 311.396 17.8946 312.689 17.6375C313.981 17.3805 315.321 17.5124 316.538 18.0167C317.756 18.5209 318.796 19.3749 319.528 20.4705C320.26 21.5661 320.651 22.8543 320.651 24.172C320.651 25.939 319.949 27.6336 318.7 28.883C317.45 30.1325 315.756 30.8344 313.989 30.8344Z" fill="#35383F"/>
<path d="M316.313 25.5657L314.919 24.1715L316.313 22.7774C316.375 22.7165 316.424 22.644 316.457 22.5641C316.491 22.4842 316.508 22.3985 316.509 22.3118C316.509 22.2252 316.492 22.1394 316.459 22.0593C316.426 21.9792 316.377 21.9064 316.316 21.8451C316.255 21.7838 316.182 21.7353 316.102 21.7023C316.022 21.6692 315.936 21.6523 315.849 21.6526C315.763 21.6529 315.677 21.6703 315.597 21.7038C315.517 21.7373 315.445 21.7863 315.384 21.848L313.99 23.2421L312.596 21.848C312.472 21.7253 312.305 21.6566 312.131 21.6568C311.957 21.6571 311.79 21.7263 311.667 21.8493C311.544 21.9723 311.475 22.1391 311.475 22.3131C311.475 22.487 311.543 22.654 311.666 22.7774L313.06 24.1715L311.666 25.5657C311.604 25.6266 311.555 25.6991 311.522 25.779C311.488 25.8588 311.471 25.9446 311.471 26.0312C311.47 26.1179 311.487 26.2037 311.52 26.2838C311.553 26.3639 311.602 26.4367 311.663 26.498C311.724 26.5592 311.797 26.6078 311.877 26.6408C311.957 26.6739 312.043 26.6907 312.13 26.6905C312.217 26.6902 312.302 26.6728 312.382 26.6393C312.462 26.6057 312.535 26.5568 312.596 26.4951L313.99 25.1009L315.384 26.4951C315.445 26.5564 315.517 26.6051 315.597 26.6384C315.677 26.6716 315.762 26.6888 315.849 26.6889C315.935 26.689 316.021 26.6721 316.101 26.6391C316.181 26.606 316.253 26.5576 316.315 26.4964C316.376 26.4353 316.424 26.3627 316.457 26.2828C316.49 26.2029 316.507 26.1172 316.507 26.0308C316.507 25.9443 316.49 25.8587 316.456 25.7789C316.423 25.6991 316.375 25.6266 316.313 25.5657V25.5657Z" fill="#1F222A"/>
</svg>
