<svg width="300" height="340" viewBox="0 0 300 340" fill="none" xmlns="http://www.w3.org/2000/svg">
<g clip-path="url(#clip0_1245_25131)">
<path d="M145.714 226.087C145.226 226.673 144.57 227.096 143.833 227.297C143.097 227.498 142.317 227.469 141.598 227.212C140.879 226.956 140.256 226.485 139.814 225.863C139.372 225.241 139.133 224.499 139.127 223.737C138.915 223.417 138.762 223.187 138.55 222.866C136.688 222.158 134.657 222.02 132.716 222.472C130.776 222.923 129.015 223.943 127.659 225.401C126.302 226.859 125.413 228.688 125.105 230.653C124.796 232.619 125.082 234.632 125.927 236.434C130.587 246.639 134.641 258.046 144.961 263.604C102.941 250.7 70.69 212.719 64.2408 169.385C66.2839 160.889 64.9259 151.26 59.5795 144.207C57.974 147.871 52.5085 149.285 51.4773 144.493C51.1816 142.554 50.903 140.613 50.6072 138.674C29.5624 138.984 35.8184 167.875 61.8059 170.104C63.1175 178.308 65.2843 186.352 68.2711 194.106C63.0137 188.157 56.4172 183.54 49.0241 180.634C41.9787 178.096 34.0506 178.142 26.4408 177.612C17.177 176.956 11.6807 187.961 17.9938 194.755C22.8629 192.009 28.9984 196.662 25.6807 201.853C39.4682 212.254 58.7263 214.596 74.7329 208.248C82.736 223.259 93.8513 236.395 107.338 246.779C90.8382 235.451 72.9363 247.926 57.0841 253.605C55.997 253.895 55.0181 254.495 54.2667 255.331C53.5154 256.168 53.024 257.205 52.8525 258.315C52.6811 259.426 52.837 260.562 53.3013 261.586C53.7656 262.609 54.5181 263.476 55.4671 264.079C57.4681 263.126 59.5591 262.372 61.7092 261.831C62.7234 261.584 63.7894 261.656 64.7611 262.037C65.7328 262.418 66.5627 263.09 67.1369 263.961C67.7112 264.832 68.0017 265.858 67.9686 266.9C67.9356 267.942 67.5806 268.949 66.9524 269.781C85.7267 276.736 108.006 270.811 121.374 256.063C128.811 260.247 136.663 263.648 144.804 266.21L164.722 244.392C164.551 244.093 164.364 243.794 164.186 243.503C162.469 245.638 160.498 247.556 158.314 249.212C156.857 238.102 157.397 231.028 145.715 226.087L145.714 226.087Z" fill="#35383F"/>
<path d="M192.871 251.726C193.544 252.085 194.312 252.229 195.07 252.138C195.828 252.047 196.54 251.725 197.108 251.217C197.677 250.709 198.076 250.038 198.25 249.296C198.425 248.554 198.367 247.776 198.084 247.068C198.159 246.691 198.214 246.421 198.29 246.044C199.746 244.686 201.576 243.794 203.543 243.481C205.511 243.169 207.527 243.45 209.334 244.289C211.14 245.128 212.655 246.487 213.683 248.191C214.711 249.896 215.206 251.868 215.105 253.855C214.644 265.061 215.198 277.153 207.739 286.187C241.782 258.408 257.304 211.085 246.908 168.523C241.806 161.424 239.427 151.995 241.714 143.45C244.585 146.238 250.181 145.489 249.326 140.662C248.867 138.755 248.392 136.853 247.934 134.945C267.541 127.305 272.66 156.418 249.434 168.272C251.319 176.364 252.35 184.63 252.513 192.936C255.135 185.447 259.5 178.686 265.249 173.209C270.816 168.205 278.176 165.262 285.023 161.904C293.355 157.808 302.602 165.929 299.322 174.599C293.775 173.89 289.85 180.511 294.884 184.068C286.043 198.894 269.093 208.318 251.87 208.467C250.129 225.384 244.796 241.736 236.228 256.434C247.23 239.728 268.522 244.538 285.348 243.826C286.465 243.685 287.598 243.872 288.61 244.364C289.622 244.855 290.468 245.631 291.047 246.594C291.625 247.558 291.91 248.67 291.866 249.792C291.823 250.915 291.453 252.001 290.802 252.918C288.589 252.788 286.368 252.878 284.172 253.187C283.14 253.34 282.179 253.808 281.423 254.527C280.668 255.246 280.153 256.181 279.95 257.204C279.747 258.226 279.866 259.287 280.29 260.239C280.714 261.192 281.423 261.99 282.319 262.525C267.559 276.037 244.687 278.942 226.736 270.32C221.429 276.995 215.441 283.102 208.869 288.542L182.182 275.839C182.227 275.497 182.287 275.15 182.342 274.813C184.739 276.144 187.289 277.177 189.937 277.889C187.09 267.051 183.917 260.702 192.87 251.726H192.871Z" fill="#35383F"/>
<path d="M216.891 340H178.771L172.378 308.438L170.305 340H134.895C134.908 315.214 136.201 290.445 138.768 265.792L139.207 264.299L139.9 261.911L140.339 260.412L147.667 235.284L148.246 233.289H192.37C194.909 235.671 197.251 238.254 199.373 241.013C200.092 241.928 200.843 242.919 201.612 243.986C202.146 244.742 202.7 245.536 203.253 246.368C208.17 253.677 211.845 261.746 214.13 270.251V270.257C214.518 271.711 214.862 273.2 215.161 274.722V274.729C215.428 276.082 215.663 277.454 215.847 278.857C215.987 279.88 216.108 280.915 216.197 281.963C216.728 287.77 216.542 293.619 215.644 299.38L216.891 340Z" fill="#2F2E41"/>
<path d="M39.306 183.443C40.503 182.039 39.8346 179.507 37.8132 177.789C35.7917 176.071 33.1827 175.816 31.9857 177.221C30.7887 178.625 31.4571 181.156 33.4785 182.874C35.5 184.593 38.109 184.847 39.306 183.443Z" fill="#35383F"/>
<path d="M48.899 176.02C50.1507 174.905 50.5353 173.295 49.7582 172.426C48.981 171.556 47.3364 171.756 46.0847 172.871C44.833 173.987 44.4484 175.596 45.2255 176.466C46.0027 177.335 47.6474 177.136 48.899 176.02Z" fill="#FF6584"/>
<path d="M76.235 173.453C77.4866 172.338 77.8713 170.729 77.0941 169.859C76.317 168.99 74.6723 169.189 73.4206 170.305C72.169 171.42 71.7843 173.03 72.5615 173.899C73.3386 174.769 74.9833 174.569 76.235 173.453Z" fill="#35383F"/>
<path d="M63.9759 173.172C65.1729 171.768 64.5045 169.237 62.4831 167.519C60.4617 165.8 57.8526 165.546 56.6556 166.95C55.4586 168.354 56.127 170.886 58.1484 172.604C60.1699 174.322 62.7789 174.577 63.9759 173.172Z" fill="#FF6584"/>
<path d="M24.5338 169.436C25.7855 168.32 26.1701 166.711 25.3929 165.842C24.6158 164.972 22.9711 165.172 21.7195 166.287C20.4678 167.403 20.0831 169.012 20.8603 169.881C21.6374 170.751 23.2821 170.551 24.5338 169.436Z" fill="#3F3D56"/>
<path d="M20.9486 157.973C22.1455 156.568 21.4772 154.037 19.4558 152.319C17.4343 150.601 14.8252 150.346 13.6283 151.75C12.4313 153.155 13.0996 155.686 15.1211 157.404C17.1425 159.122 19.7516 159.377 20.9486 157.973Z" fill="#3F3D56"/>
<path d="M150.841 133.895C151.6 133.818 152.318 133.51 152.896 133.013C153.475 132.515 153.886 131.852 154.074 131.114C154.263 130.375 154.219 129.596 153.95 128.883C153.68 128.17 153.198 127.556 152.567 127.126C152.42 126.771 152.314 126.517 152.167 126.162C152.618 124.224 153.638 122.464 155.097 121.109C156.556 119.754 158.387 118.865 160.355 118.556C162.323 118.247 164.339 118.531 166.144 119.374C167.949 120.216 169.461 121.577 170.487 123.283C176.361 132.843 183.572 142.572 182.425 154.225C195.175 112.211 181.638 64.2837 149.244 34.7388C141.046 31.6864 133.806 25.1833 130.934 16.8159C134.873 17.5321 139.101 13.7947 135.696 10.2641C134.25 8.936 132.794 7.62161 131.348 6.29346C143.359 -10.9658 163.864 10.3521 151.201 33.1236C157.283 38.792 162.755 45.0798 167.528 51.8845C165.523 44.2072 165.372 36.1642 167.087 28.4171C168.913 21.1634 173.38 14.6225 177.19 8.0228C181.819 -0.0169273 194.03 1.5765 196.147 10.6004C191.147 13.1002 191.586 20.7812 197.75 20.9321C198.69 38.1618 189.879 55.4222 175.666 65.1353C183.666 80.1486 188.369 96.6921 189.462 113.663C189.268 93.6693 209.628 85.8078 223.199 75.8485C224.048 75.1102 225.093 74.6344 226.207 74.4792C227.322 74.3239 228.457 74.4959 229.475 74.9742C230.494 75.4524 231.35 76.2163 231.941 77.1725C232.532 78.1287 232.832 79.2361 232.803 80.3594C230.893 81.4841 229.1 82.7956 227.45 84.2744C226.678 84.9762 226.142 85.8993 225.916 86.9172C225.69 87.935 225.785 88.9977 226.187 89.9597C226.59 90.9217 227.28 91.7357 228.164 92.2904C229.048 92.845 230.082 93.113 231.125 93.0577C226.416 112.493 209.051 127.639 189.335 130.476C188.656 138.973 187.096 147.376 184.677 155.551L155.43 159.864C155.277 159.555 155.133 159.234 154.991 158.923C157.723 158.694 160.417 158.131 163.012 157.248C154.598 149.836 148.42 146.332 150.84 133.895L150.841 133.895Z" fill="#35383F"/>
<path d="M180.257 124.53C166.941 124.53 159.719 122.905 157.197 119.437C154.971 116.377 156.463 112.339 158.191 107.664C159.433 104.303 160.84 100.495 160.84 96.7252C160.84 78.3911 170.149 69.0947 188.509 69.0947C197.644 69.0947 207.452 73.9405 214.746 82.0573C221.377 89.4364 224.681 98.2678 223.809 106.287C223.095 112.864 220.029 117.189 214.162 119.899L213.819 120.057L213.721 119.693C213.215 117.805 212.357 116.029 211.193 114.458C211.08 116.924 210.458 119.341 209.365 121.555L209.302 121.682L209.167 121.72C202.526 123.609 194.645 124.121 188.521 124.355C185.541 124.471 182.786 124.53 180.257 124.53Z" fill="#2F2E41"/>
<path d="M183.885 150.075C183.375 148.577 182.514 147.222 181.374 146.123C180.235 145.023 178.849 144.211 177.332 143.754C175.815 143.297 174.211 143.207 172.652 143.493C171.093 143.778 169.626 144.431 168.37 145.397L124.572 171.546L110.867 138.152C112.025 136.456 112.615 134.437 112.553 132.386C112.491 130.334 111.78 128.355 110.521 126.732C109.263 125.108 107.522 123.925 105.549 123.351C103.575 122.777 101.471 122.842 99.5363 123.536C97.6019 124.23 95.9375 125.519 94.7816 127.216C93.6258 128.913 93.038 130.933 93.1024 132.984C93.1669 135.036 93.8804 137.014 95.1405 138.636C96.4006 140.258 98.1427 141.439 100.117 142.011C100.962 151.641 105.656 194.681 121.987 193.117C135.714 191.802 169.804 169.13 180.392 161.269C182.086 160.013 183.337 158.252 183.965 156.24C184.593 154.229 184.565 152.07 183.885 150.075Z" fill="#FFB6B6"/>
<path d="M93.7877 164.173C95.0393 163.058 95.424 161.448 94.6469 160.579C93.8697 159.709 92.225 159.909 90.9734 161.024C89.7217 162.14 89.337 163.749 90.1142 164.619C90.8914 165.488 92.536 165.289 93.7877 164.173Z" fill="#3F3D56"/>
<path d="M44.5885 159.709C45.8401 158.593 46.2248 156.984 45.4476 156.114C44.6705 155.245 43.0258 155.444 41.7741 156.56C40.5225 157.676 40.1378 159.285 40.915 160.154C41.6921 161.024 43.3368 160.824 44.5885 159.709Z" fill="#35383F"/>
<path d="M173.816 129.634L194.817 128.554L204.571 143.945C204.571 143.945 222.924 147.009 221.652 168.605C220.38 190.202 199.322 209.152 199.322 209.152L200.222 220.399L198.659 224.86L198.859 227.364L200.992 230.017L201.212 232.76L199.322 237.1L201.892 241.256L147.867 236.03L145.892 228.843L148.774 224.984L147.164 219.951L149.584 215.109L150.846 199.731C150.846 199.731 137.04 179.019 152.889 163.419L159.249 152.621L166.367 143.95L173.816 129.634Z" fill="#FF4D67"/>
<path d="M2.87374 109.501C4.00946 109.233 4.61688 107.693 4.23046 106.063C3.84404 104.433 2.61009 103.329 1.47437 103.597C0.338651 103.866 -0.268772 105.405 0.11765 107.035C0.504073 108.666 1.73801 109.77 2.87374 109.501Z" fill="#3F3D56"/>
<path d="M3.05733 89.6691C4.19305 89.4006 4.80049 87.8614 4.41407 86.2311C4.02765 84.6007 2.79369 83.4967 1.65797 83.7652C0.522244 84.0336 -0.0851787 85.5729 0.301244 87.2032C0.687667 88.8335 1.92161 89.9375 3.05733 89.6691Z" fill="#35383F"/>
<path d="M184.256 125.288C196.546 125.288 206.509 115.339 206.509 103.067C206.509 90.7943 196.546 80.8455 184.256 80.8455C171.967 80.8455 162.004 90.7943 162.004 103.067C162.004 115.339 171.967 125.288 184.256 125.288Z" fill="#FFB6B6"/>
<path d="M181.278 101.72C179.36 101.72 177.444 101.666 175.528 101.558L175.186 101.539L175.231 101.2C175.513 99.0785 175.354 96.9222 174.764 94.8651C173.763 97.2073 172.272 99.3093 170.393 101.031L170.286 101.128L170.144 101.112C164.941 100.544 159.787 99.6054 154.718 98.3031L154.524 98.2535L154.486 98.0575C154.107 96.2013 153.911 94.3126 153.9 92.4184C153.9 86.5011 156.049 81.5207 159.95 78.3947C164.196 74.9921 170.283 73.9457 177.095 75.4465H198.877C201.272 75.4492 203.568 76.4003 205.261 78.0913C206.954 79.7822 207.907 82.0748 207.909 84.4662V98.2408L207.672 98.3028C199.056 100.564 190.186 101.712 181.278 101.72Z" fill="#2F2E41"/>
<path d="M12.0743 77.9552C14.5499 76.9983 16.0164 74.8284 15.3497 73.1086C14.6831 71.3889 12.1358 70.7705 9.66021 71.7275C7.18461 72.6844 5.71816 74.8543 6.3848 76.5741C7.05144 78.2938 9.59874 78.9122 12.0743 77.9552Z" fill="#FF6584"/>
<path d="M30.2292 68.4244C31.3649 68.156 31.9723 66.6167 31.5859 64.9864C31.1995 63.3561 29.9656 62.2521 28.8298 62.5205C27.6941 62.789 27.0867 64.3282 27.4731 65.9585C27.8595 67.5888 29.0935 68.6929 30.2292 68.4244Z" fill="#35383F"/>
<path d="M13.8132 64.4435C14.9489 64.1751 15.5563 62.6358 15.1699 61.0055C14.7835 59.3752 13.5495 58.2711 12.4138 58.5396C11.2781 58.808 10.6707 60.3473 11.0571 61.9776C11.4435 63.6079 12.6775 64.7119 13.8132 64.4435Z" fill="#FF6584"/>
<path d="M14.7774 51.3993C17.253 50.4424 18.7195 48.2725 18.0528 46.5527C17.3862 44.833 14.8389 44.2146 12.3633 45.1716C9.88772 46.1285 8.42128 48.2984 9.08792 50.0182C9.75457 51.7379 12.3018 52.3563 14.7774 51.3993Z" fill="#35383F"/>
<path d="M169.344 50.743C171.002 49.9292 171.395 47.3411 170.224 44.9623C169.052 42.5835 166.759 41.3149 165.102 42.1287C163.445 42.9426 163.051 45.5307 164.223 47.9094C165.394 50.2882 167.687 51.5569 169.344 50.743Z" fill="#3F3D56"/>
<path d="M31.2136 46.1815C32.3493 45.9131 32.9567 44.3738 32.5703 42.7435C32.1839 41.1132 30.9499 40.0092 29.8142 40.2776C28.6785 40.5461 28.0711 42.0853 28.4575 43.7156C28.8439 45.3459 30.0779 46.45 31.2136 46.1815Z" fill="#3F3D56"/>
<path d="M45.9474 47.4064C48.423 46.4494 49.8894 44.2795 49.2228 42.5598C48.5561 40.8401 46.0088 40.2217 43.5332 41.1787C41.0576 42.1356 39.5912 44.3055 40.2578 46.0252C40.9245 47.745 43.4718 48.3633 45.9474 47.4064Z" fill="#3F3D56"/>
<path d="M29.4372 77.0026C28.4621 77.3587 27.6683 78.0866 27.2299 79.0265C26.7915 79.9663 26.7444 81.0415 27.0988 82.016L50.5974 146.404C50.954 147.377 51.6828 148.17 52.624 148.608C53.5652 149.046 54.6418 149.093 55.6178 148.739L146.82 115.547C147.795 115.191 148.589 114.464 149.027 113.524C149.466 112.584 149.513 111.509 149.158 110.534L125.66 46.1464C125.303 45.1726 124.574 44.3799 123.633 43.9421C122.692 43.5043 121.615 43.4572 120.639 43.8111L29.4372 77.0026Z" fill="#1F222A"/>
<path d="M112.877 124.351L57.0519 144.668C56.0015 145.049 54.8427 144.998 53.8298 144.527C52.8168 144.056 52.0324 143.202 51.6486 142.154L30.3355 83.7552C29.954 82.7063 30.0048 81.5491 30.4766 80.5376C30.9484 79.526 31.8028 78.7426 32.8523 78.3593L118.901 47.0434C119.951 46.6625 121.11 46.7131 122.123 47.1843C123.136 47.6555 123.92 48.5088 124.304 49.5568L134.602 77.7747C137.895 86.8286 137.457 96.8171 133.384 105.549C129.311 114.281 121.936 121.043 112.877 124.351Z" fill="#35383F"/>
<path d="M72.7068 82.1626L59.4409 86.9905C59.2745 87.051 59.0979 87.0783 58.921 87.0706C58.7441 87.063 58.5704 87.0206 58.4099 86.946C58.2494 86.8713 58.1052 86.7658 57.9855 86.6355C57.8658 86.5052 57.773 86.3526 57.7124 86.1865C57.6517 86.0203 57.6245 85.8439 57.6321 85.6673C57.6398 85.4906 57.6822 85.3172 57.757 85.1569C57.8317 84.9966 57.9374 84.8526 58.0679 84.7331C58.1984 84.6136 58.3511 84.5209 58.5175 84.4604L71.7834 79.6324C72.1194 79.5101 72.4903 79.5262 72.8145 79.6769C73.1386 79.8277 73.3895 80.1009 73.512 80.4364C73.6344 80.772 73.6184 81.1423 73.4674 81.466C73.3164 81.7897 73.0428 82.0403 72.7068 82.1626H72.7068Z" fill="#FF4D67"/>
<path d="M104.333 76.5141L61.3292 92.1647C61.1627 92.2255 60.986 92.2529 60.8089 92.2454C60.6319 92.2379 60.458 92.1957 60.2973 92.1211C60.1367 92.0464 59.9923 91.9409 59.8725 91.8105C59.7527 91.6802 59.6598 91.5275 59.5991 91.3612C59.5384 91.1949 59.5111 91.0184 59.5189 90.8416C59.5266 90.6648 59.5691 90.4912 59.644 90.3309C59.7189 90.1705 59.8248 90.0265 59.9555 89.907C60.0862 89.7875 60.2392 89.6949 60.4058 89.6345L103.41 73.984C103.576 73.9234 103.753 73.8962 103.93 73.9038C104.106 73.9115 104.28 73.9538 104.441 74.0285C104.601 74.1032 104.745 74.2087 104.865 74.339C104.985 74.4693 105.077 74.6219 105.138 74.788C105.199 74.9541 105.226 75.1306 105.218 75.3072C105.211 75.4839 105.168 75.6573 105.094 75.8176C105.019 75.9779 104.913 76.1219 104.783 76.2414C104.652 76.3609 104.499 76.4536 104.333 76.5141Z" fill="#FF4D67"/>
<path d="M106.501 82.4532L63.4976 98.1038C63.3312 98.1643 63.1545 98.1916 62.9776 98.1839C62.8007 98.1763 62.627 98.1339 62.4665 98.0593C62.306 97.9846 62.1618 97.8791 62.0421 97.7488C61.9224 97.6185 61.8296 97.4659 61.769 97.2998C61.7084 97.1336 61.6811 96.9572 61.6888 96.7806C61.6964 96.6039 61.7388 96.4305 61.8136 96.2702C61.8884 96.1099 61.994 95.9659 62.1245 95.8464C62.255 95.7269 62.4078 95.6342 62.5742 95.5737L105.578 79.9231C105.914 79.8013 106.284 79.8177 106.608 79.9686C106.932 80.1194 107.183 80.3924 107.305 80.7277C107.427 81.0629 107.411 81.433 107.261 81.7565C107.11 82.0801 106.837 82.3307 106.501 82.4532Z" fill="#FF4D67"/>
<path d="M108.669 88.3925L65.6651 104.043C65.4987 104.104 65.3219 104.131 65.1449 104.124C64.9678 104.116 64.794 104.074 64.6333 103.999C64.4726 103.925 64.3282 103.819 64.2084 103.689C64.0886 103.559 63.9957 103.406 63.935 103.24C63.8743 103.073 63.8471 102.897 63.8548 102.72C63.8625 102.543 63.905 102.37 63.98 102.209C64.0549 102.049 64.1607 101.905 64.2914 101.785C64.4221 101.666 64.5751 101.573 64.7417 101.513L107.745 85.8624C107.912 85.8019 108.089 85.7746 108.265 85.7823C108.442 85.7899 108.616 85.8323 108.777 85.9069C108.937 85.9816 109.081 86.0871 109.201 86.2174C109.321 86.3477 109.413 86.5003 109.474 86.6664C109.535 86.8326 109.562 87.009 109.554 87.1856C109.547 87.3623 109.504 87.5357 109.429 87.696C109.355 87.8563 109.249 88.0003 109.119 88.1198C108.988 88.2393 108.835 88.332 108.669 88.3925Z" fill="#FF4D67"/>
<path d="M110.837 94.3318L67.8335 109.982C67.4975 110.105 67.1266 110.089 66.8025 109.938C66.4783 109.787 66.2274 109.514 66.1049 109.178C65.9825 108.843 65.9985 108.472 66.1495 108.149C66.3005 107.825 66.5741 107.574 66.9101 107.452L109.914 91.8016C110.08 91.7411 110.257 91.7138 110.434 91.7215C110.611 91.7291 110.784 91.7715 110.945 91.8461C111.105 91.9208 111.25 92.0263 111.369 92.1566C111.489 92.2869 111.582 92.4395 111.642 92.6056C111.703 92.7718 111.73 92.9482 111.723 93.1249C111.715 93.3015 111.673 93.4749 111.598 93.6352C111.523 93.7955 111.417 93.9395 111.287 94.059C111.156 94.1785 111.004 94.2712 110.837 94.3318H110.837Z" fill="#FF4D67"/>
<path d="M247.287 110.826L223.742 167.091C222.738 169.472 220.836 171.362 218.448 172.355C216.059 173.348 213.376 173.364 210.976 172.398C209.734 171.899 208.608 171.152 207.665 170.204C206.722 169.255 205.982 168.125 205.491 166.882C205 165.639 204.767 164.309 204.807 162.973C204.847 161.637 205.16 160.323 205.725 159.112L231.977 101.415L246.448 65.6855C245.198 64.44 244.362 62.8403 244.053 61.1037C243.745 59.3671 243.979 57.5778 244.725 55.9789C245.47 54.38 246.69 53.049 248.22 52.1667C249.749 51.2845 251.513 50.8938 253.273 51.0477C255.032 51.2015 256.701 51.8926 258.054 53.0268C259.406 54.1611 260.376 55.6837 260.832 57.3876C261.288 59.0916 261.207 60.8944 260.601 62.551C259.995 64.2076 258.893 65.6378 257.445 66.6473L247.287 110.826Z" fill="#FFB6B6"/>
<path d="M145.428 35.1628C147.021 34.6355 148.014 33.3113 147.647 32.2051C147.279 31.0988 145.691 30.6294 144.098 31.1567C142.506 31.6839 141.513 33.0081 141.88 34.1144C142.247 35.2206 143.836 35.69 145.428 35.1628Z" fill="#35383F"/>
<path d="M167.702 34.1925C169.294 33.6653 170.287 32.3411 169.92 31.2348C169.553 30.1286 167.964 29.6592 166.372 30.1865C164.779 30.7137 163.786 32.0379 164.153 33.1442C164.521 34.2504 166.109 34.7198 167.702 34.1925Z" fill="#3F3D56"/>
<path d="M147.962 18.4838C149.554 17.9565 150.547 16.6323 150.18 15.5261C149.813 14.4198 148.224 13.9505 146.631 14.4777C145.039 15.005 144.046 16.3292 144.413 17.4354C144.78 18.5417 146.369 19.011 147.962 18.4838Z" fill="#FF6584"/>
<path d="M162.632 20.0863C164.289 19.2725 164.682 16.6843 163.511 14.3056C162.339 11.9268 160.046 10.6582 158.389 11.472C156.732 12.2858 156.338 14.8739 157.51 17.2527C158.681 19.6315 160.974 20.9001 162.632 20.0863Z" fill="#35383F"/>
<path d="M135.903 19.7242C137.56 18.9104 137.954 16.3223 136.782 13.9435C135.611 11.5647 133.318 10.2961 131.661 11.1099C130.004 11.9237 129.61 14.5119 130.781 16.8907C131.953 19.2694 134.246 20.5381 135.903 19.7242Z" fill="#FF6584"/>
<path d="M102.055 11.5485C103.648 11.0213 104.641 9.69705 104.274 8.5908C103.906 7.48455 102.318 7.01518 100.725 7.54242C99.1327 8.06967 98.1395 9.39386 98.5068 10.5001C98.8741 11.6064 100.463 12.0757 102.055 11.5485Z" fill="#3F3D56"/>
<path d="M121.854 9.99528C123.447 9.46803 124.44 8.14384 124.072 7.03759C123.705 5.93134 122.117 5.46194 120.524 5.98919C118.932 6.51643 117.938 7.84065 118.306 8.9469C118.673 10.0531 120.262 10.5225 121.854 9.99528Z" fill="#35383F"/>
</g>
<defs>
<clipPath id="clip0_1245_25131">
<rect width="300" height="340" fill="white"/>
</clipPath>
</defs>
</svg>
